<svg width="66" height="66" viewBox="0 0 66 66" fill="none" xmlns="http://www.w3.org/2000/svg">
<path d="M32.5901 65.2724C50.5891 65.2724 65.1802 50.6607 65.1802 32.6362C65.1802 14.6117 50.5891 0 32.5901 0C14.5911 0 0 14.6117 0 32.6362C0 50.6607 14.5911 65.2724 32.5901 65.2724Z" fill="#22C55E"/>
<path d="M28.3605 45.0859C27.6273 45.0872 26.9136 44.8496 26.327 44.4092L26.2906 44.3819L18.6315 38.5146C18.2768 38.2423 17.9791 37.9026 17.7554 37.5151C17.5318 37.1275 17.3865 36.6997 17.328 36.2559C17.2695 35.8122 17.2988 35.3612 17.4143 34.9288C17.5298 34.4964 17.7292 34.091 18.0012 33.7358C18.2731 33.3806 18.6123 33.0825 18.9993 32.8585C19.3863 32.6345 19.8135 32.4891 20.2566 32.4305C20.6998 32.3718 21.1501 32.4012 21.5819 32.5169C22.0137 32.6325 22.4185 32.8322 22.7732 33.1046L27.7342 36.9142L39.4572 21.5987C39.729 21.2436 40.068 20.9456 40.4549 20.7217C40.8417 20.4978 41.2688 20.3525 41.7117 20.2939C42.1547 20.2353 42.6048 20.2646 43.0364 20.3802C43.468 20.4959 43.8727 20.6955 44.2272 20.9677L44.2282 20.9684L44.1555 21.0696L44.2302 20.9684C44.9455 21.519 45.4136 22.3313 45.5316 23.227C45.6495 24.1227 45.4078 25.0287 44.8595 25.7462L31.0707 43.7527C30.7517 44.1676 30.3415 44.5033 29.8721 44.7338C29.4026 44.9643 28.8864 45.0834 28.3635 45.0819L28.3605 45.0859Z" fill="white"/>
</svg>
